<svg width="18" height="16" viewBox="0 0 18 16" fill="none" xmlns="http://www.w3.org/2000/svg">
<path d="M9.00122 6.7517C6.21044 6.7517 2.28182 11.066 2.28182 13.7911C2.25088 15.0182 3.1911 15.7531 4.77478 15.7531C6.49067 15.7531 7.6264 14.8705 9.00122 14.8705C10.3901 14.8705 11.5293 15.7531 13.2277 15.7531C14.7783 15.7531 15.7502 15.0189 15.7502 13.7928C15.7206 11.0696 11.7931 6.7517 9.00122 6.7517ZM3.82542 6.30866C3.46079 5.09136 2.33105 4.30022 1.30714 4.54636C0.283228 4.79249 -0.249964 5.97814 0.114804 7.19473C0.479431 8.41484 1.60918 9.20598 2.63308 8.95985C3.65699 8.71372 4.18758 7.52525 3.82542 6.30866ZM6.80361 5.5773C7.88906 5.29161 8.43406 3.85086 8.01669 2.29425C7.59932 0.737642 6.38167 -0.205746 5.29201 0.0484727C4.20657 0.334161 3.66156 1.77491 4.07893 3.33152C4.49701 4.85648 5.7136 5.86562 6.80361 5.5773ZM16.6981 4.54706C15.6742 4.33257 14.5445 5.09206 14.1798 6.30936C13.8152 7.52701 14.3469 8.71337 15.3708 8.9595C16.3947 9.17399 17.5198 8.41449 17.889 7.1972C18.2523 5.97814 17.6897 4.79319 16.6981 4.54706ZM11.1988 5.5773C12.2572 5.86299 13.5061 4.85648 13.9235 3.33152C14.3409 1.80656 13.796 0.333986 12.7104 0.0484727C11.6521 -0.237216 10.4031 0.769287 9.98575 2.29425C9.56732 3.81921 10.1123 5.29249 11.1988 5.5773Z" fill="white"/>
</svg>
